<?xml version="1.0" encoding="UTF-8" standalone="no"?>
<svg
   width="1200"
   height="360"
   viewBox="0 0 1200 360"
   version="1.1"
   id="svg2"
   sodipodi:docname="zagala_white-bg_outlined.svg"
   inkscape:version="1.4.2 (f4327f4, 2025-05-13)"
   xmlns:inkscape="http://www.inkscape.org/namespaces/inkscape"
   xmlns:sodipodi="http://sodipodi.sourceforge.net/DTD/sodipodi-0.dtd"
   xmlns="http://www.w3.org/2000/svg"
   xmlns:svg="http://www.w3.org/2000/svg">
  <defs
     id="defs2" />
  <sodipodi:namedview
     id="namedview2"
     pagecolor="#ffffff"
     bordercolor="#000000"
     borderopacity="0.25"
     inkscape:showpageshadow="2"
     inkscape:pageopacity="0.0"
     inkscape:pagecheckerboard="0"
     inkscape:deskcolor="#d1d1d1"
     inkscape:zoom="3.0733333"
     inkscape:cx="600.1627"
     inkscape:cy="180.09762"
     inkscape:window-width="3840"
     inkscape:window-height="2054"
     inkscape:window-x="-11"
     inkscape:window-y="-11"
     inkscape:window-maximized="1"
     inkscape:current-layer="svg2" />
  <rect
     width="100%"
     height="100%"
     fill="white"
     id="rect1" />
  <path
     d="m 393.12026,145 c -2.048,0 -3.712,-0.64 -4.992,-1.92 -1.152,-1.28 -1.728,-2.752 -1.728,-4.416 0,-1.664 0.576,-3.264 1.728,-4.8 l 39.744,-51.072 c 1.024,-1.152 1.536,-2.24 1.536,-3.264 0,-1.536 -1.408,-2.304 -4.224,-2.304 h -32.448 c -1.408,0 -2.496,-0.448 -3.264,-1.344 -0.64,-0.896 -0.96,-1.792 -0.96,-2.688 0,-1.024 0.32,-1.92 0.96,-2.688 0.768,-0.896 1.856,-1.344 3.264,-1.344 h 42.048 c 2.688,0 4.672,0.64 5.952,1.92 1.408,1.28 2.112,2.816 2.112,4.608 0,1.664 -0.64,3.328 -1.92,4.992 l -38.976,49.536 c -1.28,1.408 -1.92,2.752 -1.92,4.032 0,1.664 1.536,2.496 4.608,2.496 h 37.824 c 1.536,0 2.624,0.448 3.264,1.344 0.768,0.768 1.152,1.664 1.152,2.688 0,1.024 -0.384,1.984 -1.152,2.88 -0.64,0.896 -1.728,1.344 -3.264,1.344 z m 65.27987,1.92 c -1.152,0 -2.24,-0.448 -3.264,-1.344 -1.024,-0.896 -1.536,-1.984 -1.536,-3.264 0,-0.512 0.128,-1.152 0.384,-1.92 l 26.496,-67.968 c 0.64,-1.792 1.664,-3.072 3.072,-3.84 1.536,-0.896 3.072,-1.344 4.608,-1.344 3.84,0 6.4,1.728 7.68,5.184 l 26.496,67.968 c 0.256,0.768 0.384,1.408 0.384,1.92 0,1.28 -0.512,2.368 -1.536,3.264 -1.024,0.896 -2.112,1.344 -3.264,1.344 -1.92,0 -3.328,-1.088 -4.224,-3.264 l -6.336,-16.512 c -1.024,-2.56 -2.816,-3.84 -5.376,-3.84 h -27.648 c -2.56,0 -4.352,1.28 -5.376,3.84 l -6.336,16.512 c -0.896,2.176 -2.304,3.264 -4.224,3.264 z m 18.432,-31.488 h 22.656 c 2.176,0 2.88,-1.088 2.112,-3.264 l -10.56,-28.992 c -0.768,-2.048 -1.728,-3.072 -2.88,-3.072 -1.152,0 -2.112,1.024 -2.88,3.072 l -10.56,28.992 c -0.768,2.176 -0.064,3.264 2.112,3.264 z m 90.62388,31.488 c -7.296,0 -13.824,-1.728 -19.584,-5.184 -5.632,-3.584 -10.112,-8.448 -13.44,-14.592 -3.328,-6.144 -4.992,-12.992 -4.992,-20.544 0,-7.68 1.664,-14.464 4.992,-20.352 3.328,-5.888 7.872,-10.496 13.632,-13.824 5.888,-3.456 12.544,-5.184 19.968,-5.184 5.12,0 9.856,0.832 14.208,2.496 4.48,1.664 8.512,3.84 12.096,6.528 1.024,0.64 1.536,1.664 1.536,3.072 0,1.152 -0.448,2.24 -1.344,3.264 -0.768,1.024 -1.792,1.536 -3.072,1.536 -0.768,0 -1.664,-0.384 -2.688,-1.152 -3.2,-2.944 -6.528,-4.928 -9.984,-5.952 -3.328,-1.152 -6.848,-1.728 -10.56,-1.728 -8.96,0 -16.192,2.88 -21.696,8.64 -5.376,5.76 -8.064,13.312 -8.064,22.656 0,9.344 2.624,17.088 7.872,23.232 5.248,6.016 12.288,9.024 21.12,9.024 7.68,0 13.952,-2.176 18.816,-6.528 4.864,-4.352 7.616,-9.856 8.256,-16.512 0.256,-2.048 -0.704,-3.072 -2.88,-3.072 h -19.008 c -1.28,0 -2.304,-0.384 -3.072,-1.152 -0.64,-0.896 -0.96,-1.792 -0.96,-2.688 0,-1.024 0.32,-1.92 0.96,-2.688 0.768,-0.768 1.792,-1.152 3.072,-1.152 h 22.272 c 5.632,0 8.448,2.752 8.448,8.256 0,5.888 -1.472,11.392 -4.416,16.512 -2.944,5.12 -7.104,9.28 -12.48,12.48 -5.248,3.072 -11.584,4.608 -19.008,4.608 z m 47.42386,0 c -1.152,0 -2.24,-0.448 -3.264,-1.344 -1.024,-0.896 -1.536,-1.984 -1.536,-3.264 0,-0.512 0.128,-1.152 0.384,-1.92 l 26.496,-67.968 c 0.64,-1.792 1.664,-3.072 3.072,-3.84 1.536,-0.896 3.072,-1.344 4.608,-1.344 3.84,0 6.4,1.728 7.68,5.184 l 26.496,67.968 c 0.256,0.768 0.384,1.408 0.384,1.92 0,1.28 -0.512,2.368 -1.536,3.264 -1.024,0.896 -2.112,1.344 -3.264,1.344 -1.92,0 -3.328,-1.088 -4.224,-3.264 l -6.336,-16.512 c -1.024,-2.56 -2.816,-3.84 -5.376,-3.84 h -27.648 c -2.56,0 -4.352,1.28 -5.376,3.84 l -6.336,16.512 c -0.896,2.176 -2.304,3.264 -4.224,3.264 z m 18.432,-31.488 h 22.656 c 2.176,0 2.88,-1.088 2.112,-3.264 l -10.56,-28.992 c -0.768,-2.048 -1.728,-3.072 -2.88,-3.072 -1.152,0 -2.112,1.024 -2.88,3.072 l -10.56,28.992 c -0.768,2.176 -0.064,3.264 2.112,3.264 z M 702.23979,145 c -2.816,0 -5.12,-0.832 -6.912,-2.496 -1.792,-1.664 -2.688,-4.032 -2.688,-7.104 V 71.656 c 0,-1.408 0.448,-2.496 1.344,-3.264 1.024,-0.768 2.112,-1.152 3.264,-1.152 1.28,0 2.368,0.384 3.264,1.152 0.896,0.768 1.344,1.856 1.344,3.264 v 58.368 c 0,4.48 2.24,6.72 6.72,6.72 h 21.504 c 1.408,0 2.368,0.448 2.88,1.344 0.64,0.768 0.96,1.664 0.96,2.688 0,1.024 -0.32,1.984 -0.96,2.88 -0.512,0.896 -1.472,1.344 -2.88,1.344 z m 46.08002,1.92 c -1.152,0 -2.24,-0.448 -3.264,-1.344 -1.024,-0.896 -1.536,-1.984 -1.536,-3.264 0,-0.512 0.128,-1.152 0.384,-1.92 l 26.496,-67.968 c 0.64,-1.792 1.664,-3.072 3.072,-3.84 1.536,-0.896 3.072,-1.344 4.608,-1.344 3.84,0 6.4,1.728 7.68,5.184 l 26.496,67.968 c 0.256,0.768 0.384,1.408 0.384,1.92 0,1.28 -0.512,2.368 -1.536,3.264 -1.024,0.896 -2.112,1.344 -3.264,1.344 -1.92,0 -3.328,-1.088 -4.224,-3.264 l -6.336,-16.512 c -1.024,-2.56 -2.816,-3.84 -5.376,-3.84 h -27.648 c -2.56,0 -4.352,1.28 -5.376,3.84 l -6.336,16.512 c -0.896,2.176 -2.304,3.264 -4.224,3.264 z m 18.432,-31.488 h 22.656 c 2.176,0 2.88,-1.088 2.112,-3.264 l -10.56,-28.992 c -0.768,-2.048 -1.728,-3.072 -2.88,-3.072 -1.152,0 -2.112,1.024 -2.88,3.072 l -10.56,28.992 c -0.768,2.176 -0.064,3.264 2.112,3.264 z"
     id="text1"
     style="font-weight:300;font-size:192px;font-family:Dongle;-inkscape-font-specification:'Dongle, Light';text-anchor:middle"
     aria-label="ZAGALA"
     sodipodi:nodetypes="scsccssscscsscsccssscscssssscccsccsssccssccsssccsccsscssscsccscsccscscsscsscscsssscsssscccsccsssccssccsssccsccssssscsssssscscssssscccsccsssccssccsssccsccs" />
  <path
     d="m 320.4201,256.4 c -5.32,0 -10.08,-1.26 -14.28,-3.78 -4.10667,-2.61333 -7.37333,-6.16 -9.8,-10.64 -2.42667,-4.48 -3.64,-9.47333 -3.64,-14.98 0,-5.6 1.21333,-10.54667 3.64,-14.84 2.42667,-4.29333 5.74,-7.65333 9.94,-10.08 4.29333,-2.52 9.14667,-3.78 14.56,-3.78 3.73333,0 7.18667,0.60667 10.36,1.82 3.26667,1.21333 6.20667,2.8 8.82,4.76 0.74667,0.46667 1.12,1.21333 1.12,2.24 0,0.84 -0.32667,1.63333 -0.98,2.38 -0.56,0.74667 -1.30667,1.12 -2.24,1.12 -0.56,0 -1.21333,-0.28 -1.96,-0.84 -2.33333,-2.14667 -4.76,-3.59333 -7.28,-4.34 -2.42667,-0.84 -4.99333,-1.26 -7.7,-1.26 -6.53333,0 -11.80667,2.1 -15.82,6.3 -3.92,4.2 -5.88,9.70667 -5.88,16.52 0,6.81333 1.91333,12.46 5.74,16.94 3.82667,4.38667 8.96,6.58 15.4,6.58 5.6,0 10.17333,-1.58667 13.72,-4.76 3.54667,-3.17333 5.55333,-7.18667 6.02,-12.04 0.18667,-1.49333 -0.51333,-2.24 -2.1,-2.24 h -13.86 c -0.93333,0 -1.68,-0.28 -2.24,-0.84 -0.46667,-0.65333 -0.7,-1.30667 -0.7,-1.96 0,-0.74667 0.23333,-1.4 0.7,-1.96 0.56,-0.56 1.30667,-0.84 2.24,-0.84 h 16.24 c 4.10667,0 6.16,2.00667 6.16,6.02 0,4.29333 -1.07333,8.30667 -3.22,12.04 -2.14667,3.73333 -5.18,6.76667 -9.1,9.1 -3.82667,2.24 -8.44667,3.36 -13.86,3.36 z m 53.75992,0 c -5.78667,0 -10.54667,-1.96 -14.28,-5.88 -3.73333,-4.01333 -5.6,-9.14667 -5.6,-15.4 0,-6.06667 1.86667,-11.01333 5.6,-14.84 3.73333,-3.92 8.49333,-5.88 14.28,-5.88 5.97333,0 10.78,2.1 14.42,6.3 v -2.52 c 0,-1.02667 0.32667,-1.77333 0.98,-2.24 0.65333,-0.56 1.35333,-0.84 2.1,-0.84 0.84,0 1.58667,0.28 2.24,0.84 0.65333,0.46667 0.98,1.21333 0.98,2.24 v 35 c 0,0.93333 -0.32667,1.68 -0.98,2.24 -0.56,0.65333 -1.30667,0.98 -2.24,0.98 -0.93333,0 -1.68,-0.32667 -2.24,-0.98 -0.56,-0.56 -0.84,-1.30667 -0.84,-2.24 v -3.36 c -1.68,2.05333 -3.78,3.68667 -6.3,4.9 -2.42667,1.12 -5.13333,1.68 -8.12,1.68 z m 0,-5.74 c 4.38667,0 7.88667,-1.30667 10.5,-3.92 2.61333,-2.61333 3.92,-6.48667 3.92,-11.62 0,-4.94667 -1.30667,-8.68 -3.92,-11.2 -2.61333,-2.52 -6.11333,-3.78 -10.5,-3.78 -4.01333,0 -7.28,1.44667 -9.8,4.34 -2.42667,2.89333 -3.64,6.44 -3.64,10.64 0,4.38667 1.21333,8.07333 3.64,11.06 2.52,2.98667 5.78667,4.48 9.8,4.48 z m 35.84009,5.74 c -0.93333,0 -1.72667,-0.32667 -2.38,-0.98 -0.56,-0.56 -0.84,-1.30667 -0.84,-2.24 v -35 c 0,-1.02667 0.32667,-1.77333 0.98,-2.24 0.65333,-0.56 1.4,-0.84 2.24,-0.84 0.74667,0 1.44667,0.28 2.1,0.84 0.65333,0.46667 0.98,1.21333 0.98,2.24 v 2.94 c 1.58667,-2.24 3.59333,-3.92 6.02,-5.04 2.52,-1.12 5.08667,-1.68 7.7,-1.68 3.08,0 5.83333,0.74667 8.26,2.24 2.52,1.49333 4.43333,3.78 5.74,6.86 1.77333,-3.54667 4.10667,-5.92667 7,-7.14 2.98667,-1.30667 5.78667,-1.96 8.4,-1.96 4.38667,0 8.07333,1.54 11.06,4.62 3.08,3.08 4.62,7.93333 4.62,14.56 v 19.6 c 0,0.93333 -0.28,1.68 -0.84,2.24 -0.56,0.65333 -1.30667,0.98 -2.24,0.98 -0.93333,0 -1.72667,-0.32667 -2.38,-0.98 -0.56,-0.56 -0.84,-1.30667 -0.84,-2.24 V 234 c 0,-4.76 -0.93333,-8.21333 -2.8,-10.36 -1.77333,-2.14667 -4.24667,-3.22 -7.42,-3.22 -3.17333,0 -5.69333,0.79333 -7.56,2.38 -1.86667,1.49333 -3.22,3.36 -4.06,5.6 -0.84,2.24 -1.26,4.52667 -1.26,6.86 v 17.92 c 0,0.93333 -0.28,1.68 -0.84,2.24 -0.56,0.65333 -1.30667,0.98 -2.24,0.98 -0.93333,0 -1.72667,-0.32667 -2.38,-0.98 -0.56,-0.56 -0.84,-1.30667 -0.84,-2.24 v -19.04 c 0,-4.76 -0.93333,-8.21333 -2.8,-10.36 -1.77333,-2.24 -4.24667,-3.36 -7.42,-3.36 -3.17333,0 -5.69333,0.79333 -7.56,2.38 -1.86667,1.49333 -3.22,3.40667 -4.06,5.74 -0.84,2.24 -1.26,4.48 -1.26,6.72 v 17.92 c 0,0.93333 -0.28,1.68 -0.84,2.24 -0.56,0.65333 -1.30667,0.98 -2.24,0.98 z m 93.23988,0 c -6.53333,0 -11.76,-1.91333 -15.68,-5.74 -3.92,-3.92 -5.88,-9.28667 -5.88,-16.1 0,-3.73333 0.84,-7.09333 2.52,-10.08 1.68,-3.08 4.01333,-5.50667 7,-7.28 3.08,-1.86667 6.67333,-2.8 10.78,-2.8 4.29333,0 7.84,0.93333 10.64,2.8 2.8,1.77333 4.85333,4.01333 6.16,6.72 1.4,2.61333 2.1,5.22667 2.1,7.84 0,1.58667 -0.37333,2.89333 -1.12,3.92 -0.65333,1.02667 -1.63333,1.54 -2.94,1.54 h -26.88 c -0.56,0 -0.98,0.0467 -1.26,0.14 -0.18667,0.0933 -0.28,0.42 -0.28,0.98 0,1.58667 0.51333,3.31333 1.54,5.18 1.02667,1.86667 2.47333,3.5 4.34,4.9 1.96,1.30667 4.2,2.05333 6.72,2.24 2.70667,0.18667 5.36667,-0.0933 7.98,-0.84 2.61333,-0.74667 4.94667,-1.91333 7,-3.5 0.46667,-0.37333 0.98,-0.56 1.54,-0.56 0.65333,0 1.26,0.28 1.82,0.84 0.65333,0.56 0.98,1.26 0.98,2.1 0,0.84 -0.42,1.68 -1.26,2.52 -2.24,1.77333 -4.76,3.08 -7.56,3.92 -2.8,0.84 -5.55333,1.26 -8.26,1.26 z m 8.82,-24.08 c 0.74667,0 1.30667,-0.28 1.68,-0.84 0.37333,-0.65333 0.46667,-1.44667 0.28,-2.38 -0.28,-2.42667 -1.54,-4.57333 -3.78,-6.44 -2.24,-1.96 -4.99333,-2.94 -8.26,-2.94 -2.42667,0 -4.66667,0.60667 -6.72,1.82 -1.96,1.12 -3.54667,2.56667 -4.76,4.34 -1.21333,1.77333 -1.82,3.64 -1.82,5.6 0,0.46667 0.42,0.7 1.26,0.7 z m 65.52013,24.08 c -4.48,0 -8.49333,-0.74667 -12.04,-2.24 -3.54667,-1.58667 -6.25333,-3.5 -8.12,-5.74 -0.56,-0.74667 -0.84,-1.44667 -0.84,-2.1 0,-0.93333 0.32667,-1.68 0.98,-2.24 0.74667,-0.65333 1.54,-0.98 2.38,-0.98 0.84,0 1.63333,0.37333 2.38,1.12 1.58667,1.77333 3.78,3.31333 6.58,4.62 2.89333,1.30667 6.02,1.96 9.38,1.96 4.10667,0 7.37333,-1.02667 9.8,-3.08 2.42667,-2.05333 3.64,-4.62 3.64,-7.7 0,-2.42667 -0.74667,-4.34 -2.24,-5.74 -1.49333,-1.49333 -3.31333,-2.61333 -5.46,-3.36 -2.14667,-0.84 -4.29333,-1.49333 -6.44,-1.96 -3.17333,-0.74667 -6.3,-1.63333 -9.38,-2.66 -2.98667,-1.12 -5.46,-2.66 -7.42,-4.62 -1.96,-2.05333 -2.94,-4.76 -2.94,-8.12 0,-4.66667 1.82,-8.35333 5.46,-11.06 3.64,-2.8 8.58667,-4.2 14.84,-4.2 3.82667,0 7,0.51333 9.52,1.54 2.61333,0.93333 4.80667,2.19333 6.58,3.78 0.74667,0.65333 1.12,1.4 1.12,2.24 0,0.65333 -0.28,1.35333 -0.84,2.1 -0.56,0.65333 -1.21333,0.98 -1.96,0.98 -0.74667,0 -1.54,-0.32667 -2.38,-0.98 -1.02667,-0.84 -2.56667,-1.72667 -4.62,-2.66 -2.05333,-0.93333 -4.71333,-1.4 -7.98,-1.4 -4.10667,0 -7.42,0.79333 -9.94,2.38 -2.42667,1.58667 -3.64,3.96667 -3.64,7.14 0,2.14667 0.65333,3.82667 1.96,5.04 1.30667,1.12 3.08,2.05333 5.32,2.8 2.33333,0.65333 4.85333,1.35333 7.56,2.1 2.52,0.65333 5.27333,1.54 8.26,2.66 2.98667,1.02667 5.50667,2.66 7.56,4.9 2.14667,2.14667 3.22,5.22667 3.22,9.24 0,5.13333 -1.96,9.14667 -5.88,12.04 -3.82667,2.8 -8.63333,4.2 -14.42,4.2 z m 49.28006,0 c -3.92,0 -7.42,-0.93333 -10.5,-2.8 -3.08,-1.86667 -5.55333,-4.38667 -7.42,-7.56 -1.77333,-3.26667 -2.66,-6.90667 -2.66,-10.92 0,-4.01333 0.88667,-7.56 2.66,-10.64 1.86667,-3.08 4.34,-5.50667 7.42,-7.28 3.08,-1.86667 6.58,-2.8 10.5,-2.8 3.92,0 7.42,0.93333 10.5,2.8 3.17333,1.77333 5.64667,4.2 7.42,7.28 1.86667,3.08 2.8,6.62667 2.8,10.64 0,4.01333 -0.93333,7.65333 -2.8,10.92 -1.77333,3.17333 -4.24667,5.69333 -7.42,7.56 -3.08,1.86667 -6.58,2.8 -10.5,2.8 z m 0,-5.74 c 4.38667,0 7.88667,-1.49333 10.5,-4.48 2.61333,-2.98667 3.92,-6.67333 3.92,-11.06 0,-4.2 -1.30667,-7.74667 -3.92,-10.64 -2.61333,-2.89333 -6.11333,-4.34 -10.5,-4.34 -4.29333,0 -7.74667,1.44667 -10.36,4.34 -2.52,2.89333 -3.78,6.44 -3.78,10.64 0,4.38667 1.26,8.07333 3.78,11.06 2.61333,2.98667 6.06667,4.48 10.36,4.48 z m 34.43995,5.74 c -0.93333,0 -1.72667,-0.32667 -2.38,-0.98 -0.56,-0.56 -0.84,-1.30667 -0.84,-2.24 v -55.3 c 0,-1.02667 0.32667,-1.77333 0.98,-2.24 0.65333,-0.56 1.4,-0.84 2.24,-0.84 0.74667,0 1.44667,0.28 2.1,0.84 0.65333,0.46667 0.98,1.21333 0.98,2.24 v 55.3 c 0,0.93333 -0.28,1.68 -0.84,2.24 -0.56,0.65333 -1.30667,0.98 -2.24,0.98 z m 45.78003,-38.78 c 0,-1.02667 0.32667,-1.82 0.98,-2.38 0.65333,-0.56 1.4,-0.84 2.24,-0.84 0.74667,0 1.44667,0.28 2.1,0.84 0.65333,0.56 0.98,1.35333 0.98,2.38 v 19.74 c 0,5.78667 -1.68,10.40667 -5.04,13.86 -3.36,3.45333 -7.93333,5.18 -13.72,5.18 -4.29333,0 -7.79333,-0.88667 -10.5,-2.66 -2.70667,-1.77333 -4.71333,-4.10667 -6.02,-7 -1.21333,-2.98667 -1.82,-6.16 -1.82,-9.52 v -19.6 c 0,-1.02667 0.32667,-1.82 0.98,-2.38 0.65333,-0.56 1.4,-0.84 2.24,-0.84 0.74667,0 1.44667,0.28 2.1,0.84 0.65333,0.56 0.98,1.35333 0.98,2.38 v 20.16 c 0,4.57333 1.21333,7.84 3.64,9.8 2.42667,1.96 5.22667,2.94 8.4,2.94 2.98667,0 5.78667,-0.98 8.4,-2.94 2.70667,-1.96 4.06,-5.13333 4.06,-9.52 z m 33.17989,38.78 c -3.82667,0 -6.81333,-1.12 -8.96,-3.36 -2.14667,-2.33333 -3.22,-5.50667 -3.22,-9.52 V 222.8 c 0,-0.93333 -0.46667,-1.4 -1.4,-1.4 h -3.5 c -0.74667,0 -1.4,-0.28 -1.96,-0.84 -0.56,-0.56 -0.84,-1.21333 -0.84,-1.96 0,-0.74667 0.28,-1.4 0.84,-1.96 0.56,-0.56 1.21333,-0.84 1.96,-0.84 h 3.5 c 0.93333,0 1.4,-0.46667 1.4,-1.4 v -13.02 c 0,-1.02667 0.32667,-1.77333 0.98,-2.24 0.65333,-0.56 1.35333,-0.84 2.1,-0.84 0.84,0 1.58667,0.28 2.24,0.84 0.65333,0.46667 0.98,1.21333 0.98,2.24 v 13.02 c 0,0.93333 0.46667,1.4 1.4,1.4 h 9.8 c 0.74667,0 1.4,0.28 1.96,0.84 0.56,0.56 0.84,1.21333 0.84,1.96 0,0.74667 -0.28,1.4 -0.84,1.96 -0.56,0.56 -1.21333,0.84 -1.96,0.84 h -9.8 c -0.93333,0 -1.4,0.46667 -1.4,1.4 v 20.3 c 0,4.85333 2.24,7.28 6.72,7.28 1.12,0 2.00667,-0.14 2.66,-0.42 0.74667,-0.28 1.35333,-0.42 1.82,-0.42 0.84,0 1.49333,0.32667 1.96,0.98 0.56,0.65333 0.84,1.35333 0.84,2.1 0,1.49333 -0.7,2.42667 -2.1,2.8 -0.93333,0.37333 -1.96,0.60667 -3.08,0.7 -1.02667,0.18667 -2.00667,0.28 -2.94,0.28 z m 21.13992,0 c -0.93333,0 -1.72667,-0.32667 -2.38,-0.98 -0.56,-0.56 -0.84,-1.30667 -0.84,-2.24 v -35.7 c 0,-1.02667 0.32667,-1.77333 0.98,-2.24 0.65333,-0.56 1.4,-0.84 2.24,-0.84 0.74667,0 1.44667,0.28 2.1,0.84 0.65333,0.46667 0.98,1.21333 0.98,2.24 v 35.7 c 0,0.93333 -0.28,1.68 -0.84,2.24 -0.56,0.65333 -1.30667,0.98 -2.24,0.98 z m -0.42,-51.24 c -1.49333,0 -2.70667,-0.42 -3.64,-1.26 -0.84,-0.93333 -1.26,-2.1 -1.26,-3.5 0,-1.49333 0.42,-2.66 1.26,-3.5 0.93333,-0.93333 2.14667,-1.4 3.64,-1.4 1.49333,0 2.66,0.46667 3.5,1.4 0.93333,0.84 1.4,2.00667 1.4,3.5 0,1.4 -0.46667,2.56667 -1.4,3.5 -0.84,0.84 -2.00667,1.26 -3.5,1.26 z m 34.57992,51.24 c -3.92,0 -7.42,-0.93333 -10.5,-2.8 -3.08,-1.86667 -5.55333,-4.38667 -7.42,-7.56 -1.77333,-3.26667 -2.66,-6.90667 -2.66,-10.92 0,-4.01333 0.88667,-7.56 2.66,-10.64 1.86667,-3.08 4.34,-5.50667 7.42,-7.28 3.08,-1.86667 6.58,-2.8 10.5,-2.8 3.92,0 7.42,0.93333 10.5,2.8 3.17333,1.77333 5.64667,4.2 7.42,7.28 1.86667,3.08 2.8,6.62667 2.8,10.64 0,4.01333 -0.93333,7.65333 -2.8,10.92 -1.77333,3.17333 -4.24667,5.69333 -7.42,7.56 -3.08,1.86667 -6.58,2.8 -10.5,2.8 z m 0,-5.74 c 4.38667,0 7.88667,-1.49333 10.5,-4.48 2.61333,-2.98667 3.92,-6.67333 3.92,-11.06 0,-4.2 -1.30667,-7.74667 -3.92,-10.64 -2.61333,-2.89333 -6.11333,-4.34 -10.5,-4.34 -4.29333,0 -7.74667,1.44667 -10.36,4.34 -2.52,2.89333 -3.78,6.44 -3.78,10.64 0,4.38667 1.26,8.07333 3.78,11.06 2.61333,2.98667 6.06667,4.48 10.36,4.48 z m 65.93995,5.74 c -0.93333,0 -1.72667,-0.32667 -2.38,-0.98 -0.56,-0.56 -0.84,-1.30667 -0.84,-2.24 v -19.04 c 0,-4.66667 -0.98,-8.12 -2.94,-10.36 -1.96,-2.24 -4.71333,-3.36 -8.26,-3.36 -3.26667,0 -5.97333,0.79333 -8.12,2.38 -2.05333,1.49333 -3.54667,3.40667 -4.48,5.74 -0.93333,2.24 -1.4,4.48 -1.4,6.72 v 17.92 c 0,0.93333 -0.28,1.68 -0.84,2.24 -0.56,0.65333 -1.30667,0.98 -2.24,0.98 -0.93333,0 -1.72667,-0.32667 -2.38,-0.98 -0.56,-0.56 -0.84,-1.30667 -0.84,-2.24 v -35 c 0,-1.02667 0.32667,-1.77333 0.98,-2.24 0.65333,-0.56 1.4,-0.84 2.24,-0.84 0.74667,0 1.44667,0.28 2.1,0.84 0.65333,0.46667 0.98,1.21333 0.98,2.24 v 3.08 c 1.86667,-2.14667 4.10667,-3.82667 6.72,-5.04 2.61333,-1.21333 5.32,-1.82 8.12,-1.82 4.76,0 8.72667,1.58667 11.9,4.76 3.17333,3.08 4.76,7.88667 4.76,14.42 v 19.6 c 0,0.93333 -0.28,1.68 -0.84,2.24 -0.56,0.65333 -1.30667,0.98 -2.24,0.98 z m 28.55995,0 c -6.34667,0 -11.48,-1.82 -15.4,-5.46 -0.65333,-0.65333 -0.98,-1.4 -0.98,-2.24 0,-0.93333 0.37333,-1.68 1.12,-2.24 0.74667,-0.56 1.35333,-0.84 1.82,-0.84 0.74667,0 1.68,0.46667 2.8,1.4 1.4,1.21333 2.98667,2.14667 4.76,2.8 1.86667,0.65333 3.96667,0.98 6.3,0.98 3.26667,0 5.69333,-0.60667 7.28,-1.82 1.68,-1.21333 2.52,-2.84667 2.52,-4.9 0,-2.14667 -0.88667,-3.68667 -2.66,-4.62 -1.77333,-1.02667 -4.29333,-1.72667 -7.56,-2.1 -1.77333,-0.18667 -3.92,-0.51333 -6.44,-0.98 -2.42667,-0.46667 -4.57333,-1.4 -6.44,-2.8 -1.86667,-1.49333 -2.8,-3.73333 -2.8,-6.72 0,-3.82667 1.4,-6.86 4.2,-9.1 2.8,-2.24 6.72,-3.36 11.76,-3.36 2.89333,0 5.6,0.37333 8.12,1.12 2.52,0.65333 4.34,1.49333 5.46,2.52 0.74667,0.56 1.12,1.30667 1.12,2.24 0,0.65333 -0.28,1.35333 -0.84,2.1 -0.56,0.65333 -1.21333,0.98 -1.96,0.98 -0.37333,0 -0.74667,-0.0933 -1.12,-0.28 l -1.12,-0.56 c -1.68,-0.93333 -3.22,-1.58667 -4.62,-1.96 -1.30667,-0.37333 -2.89333,-0.56 -4.76,-0.56 -2.98667,0 -5.41333,0.56 -7.28,1.68 -1.77333,1.02667 -2.66,2.61333 -2.66,4.76 0,1.49333 0.60667,2.61333 1.82,3.36 1.30667,0.65333 3.82667,1.21333 7.56,1.68 1.30667,0.18667 2.89333,0.46667 4.76,0.84 1.86667,0.37333 3.68667,0.98 5.46,1.82 1.77333,0.74667 3.26667,1.91333 4.48,3.5 1.21333,1.49333 1.82,3.5 1.82,6.02 0,3.82667 -1.44667,6.90667 -4.34,9.24 -2.89333,2.33333 -6.95333,3.5 -12.18,3.5 z"
     id="text2"
     style="font-weight:300;font-size:140px;font-family:Dongle;text-anchor:middle"
     aria-label="Game Solutions"
     sodipodi:nodetypes="scssscsccscsccscscsscsscscsssscsscscscscscsscscsccsssssscscssssscscsccscccscsscsssscscssscsssscsccsscsscsccsccscsscssccscscscssccccscssccsccscsccssscccccscsccscscsscscccccscssscsccsccsccsssssscscssssscscsscsssssssssscssssssssscssscssssssssssscscsssssssssssscscsccssssscscsscsscssscssssscsccsccsccsssssscscsssssssccsscsssscscscsscsscsscsssccscsccccsssccscssccscsccsccsss" />
</svg>
